<?xml version="1.0" standalone="no"?>
<!DOCTYPE svg PUBLIC "-//W3C//DTD SVG 20010904//EN"
 "http://www.w3.org/TR/2001/REC-SVG-20010904/DTD/svg10.dtd">
<svg version="1.0" xmlns="http://www.w3.org/2000/svg"
 width="590.000000pt" height="332.000000pt" viewBox="0 0 590.000000 332.000000"
 preserveAspectRatio="xMidYMid meet">

<g transform="translate(0.000000,332.000000) scale(0.100000,-0.100000)"
fill="#000000" stroke="none">
<path d="M0 2551 c0 -724 1 -770 18 -774 16 -4 16 -5 0 -6 -14 -1 -18 -10 -18
-36 0 -26 4 -35 18 -36 15 0 14 -2 -3 -10 -13 -6 52 -7 180 -4 110 4 209 5
220 3 11 -1 109 -3 217 -3 109 0 190 -3 180 -7 -16 -6 -16 -7 0 -7 9 -1 20 4
23 9 3 6 16 10 28 10 18 0 19 -2 7 -10 -13 -8 -12 -10 3 -10 9 0 17 5 17 10 0
6 25 10 58 9 41 0 51 -3 37 -9 -19 -8 -19 -9 2 -9 12 -1 25 4 28 9 3 6 16 10
28 9 21 0 21 -1 2 -9 -16 -7 -17 -9 -3 -9 9 -1 20 4 23 9 3 6 37 10 75 10 48
0 73 5 84 15 8 8 30 15 50 15 19 0 38 5 42 11 3 6 15 9 25 6 11 -3 19 -1 19 4
0 5 -5 9 -12 9 -6 0 -8 3 -5 6 4 4 13 1 21 -5 8 -7 48 -13 88 -15 41 -2 83 -8
94 -14 14 -8 -2 -10 -68 -5 -47 3 -94 2 -105 -2 -10 -4 -44 -7 -75 -5 -32 1
-58 -3 -58 -8 0 -5 25 -7 55 -5 37 2 55 0 55 -8 0 -8 4 -8 14 1 10 8 46 10
110 8 53 -2 96 0 96 4 0 5 21 8 48 8 33 0 43 3 32 10 -8 5 -25 6 -38 3 -14 -3
-27 -1 -31 4 -7 11 -69 43 -83 43 -15 0 -39 28 -29 34 5 4 11 2 13 -3 3 -10
113 -25 170 -24 15 0 25 -4 22 -9 -4 -6 -17 -8 -30 -5 -40 7 -37 -10 3 -24 21
-7 46 -13 55 -14 31 -3 33 -15 2 -15 -16 0 -36 -5 -44 -10 -11 -7 -7 -10 20
-11 19 -1 51 -3 70 -4 199 -15 231 -15 251 -1 15 10 17 15 7 19 -7 3 -3 6 9 6
16 1 21 -3 17 -14 -7 -18 -4 -18 30 -5 19 7 25 6 23 -3 -2 -13 14 -15 153 -20
106 -3 120 -1 120 19 0 8 4 14 9 14 5 0 7 -8 5 -17 -5 -17 10 -18 200 -19 168
0 206 2 206 14 0 11 3 10 16 -2 21 -21 22 -21 34 17 l10 32 -4 -31 c-5 -31 -4
-31 40 -30 33 0 44 4 44 15 1 14 2 14 14 -1 18 -24 66 -17 81 13 l13 23 4 -24
c3 -22 7 -25 42 -22 23 2 45 10 52 20 13 16 13 16 14 0 0 -15 9 -18 55 -18 34
0 55 4 55 11 0 8 4 8 13 2 17 -13 97 -17 97 -5 0 6 -16 9 -37 6 -53 -7 -29 12
25 20 32 5 42 3 36 -5 -5 -8 -3 -9 6 -4 8 5 25 9 39 11 127 11 178 22 209 42
21 13 22 13 15 -3 -4 -13 -3 -16 5 -11 7 4 12 2 12 -5 0 -6 -8 -9 -19 -6 -10
2 -25 0 -32 -5 -11 -8 -10 -9 4 -4 21 7 23 -10 1 -18 -24 -9 -36 -7 -28 6 4 7
3 8 -5 4 -25 -16 3 -23 81 -21 61 2 84 6 93 19 13 18 35 22 35 6 0 -5 -6 -10
-14 -10 -8 0 -16 -7 -19 -15 -5 -12 -2 -12 18 -3 18 8 28 8 38 0 10 -9 16 -9
25 0 9 9 18 9 37 0 15 -7 24 -8 20 -2 -3 5 1 10 9 10 9 0 16 -4 16 -10 0 -14
66 -12 90 3 17 10 22 9 29 -1 7 -12 12 -12 30 0 18 11 23 11 30 -1 7 -10 13
-11 31 -1 12 7 20 8 16 2 -5 -8 17 -9 49 -2 6 1 12 1 15 0 18 -7 107 -6 117 2
7 6 25 6 47 -1 21 -5 34 -6 31 0 -7 11 8 12 19 2 10 -10 186 -12 186 -2 0 5 5
9 11 9 5 0 7 -4 4 -10 -4 -6 13 -10 44 -10 30 0 51 5 54 13 4 9 7 9 14 0 7 -9
145 -12 581 -12 l572 0 0 825 0 824 -2950 0 -2950 0 0 -769z m3340 -392 c0 -5
5 -7 11 -3 6 3 21 2 32 -4 72 -34 119 -52 134 -52 24 0 7 -13 -22 -16 -15 -2
-29 4 -35 14 -5 9 -10 14 -10 9 0 -4 -13 -1 -29 7 -16 9 -31 12 -34 9 -4 -3
-9 2 -13 11 -4 10 -13 14 -24 11 -11 -3 -20 0 -24 10 -3 8 -1 15 4 15 6 0 10
-5 10 -11z m-122 -13 c-7 -8 -16 -12 -19 -10 -3 2 -14 -3 -25 -10 -10 -8 -23
-12 -29 -10 -18 6 -120 -70 -117 -88 1 -9 -3 -20 -9 -24 -9 -5 -10 -2 -6 9 8
22 -7 22 -29 0 -10 -10 -12 -19 -6 -21 12 -4 5 -32 -9 -32 -4 0 -6 6 -4 13 3
6 1 18 -4 26 -7 10 -12 11 -27 1 -16 -10 -16 -11 -2 -6 15 5 16 3 6 -14 -13
-20 -13 -19 -20 0 -7 18 -11 19 -30 9 -62 -32 -73 -36 -63 -19 3 6 0 10 -7 11
-10 0 -10 2 0 6 17 7 15 23 -3 23 -8 0 -15 -4 -15 -10 0 -5 -6 -7 -13 -4 -19
7 -127 -52 -154 -85 -14 -16 -23 -20 -23 -12 0 10 -8 7 -25 -9 -14 -13 -25
-20 -25 -16 0 3 -13 0 -30 -9 -16 -8 -40 -15 -53 -15 -12 0 -29 -6 -35 -12 -8
-8 -15 -9 -20 -3 -10 14 -187 5 -213 -11 -4 -2 -10 0 -14 6 -4 7 -13 6 -27 -1
-18 -9 -20 -9 -15 4 5 12 -6 18 -49 28 -29 7 -54 15 -54 20 0 4 17 3 38 -2 47
-11 54 -11 48 0 -3 5 -22 12 -42 16 -20 3 -44 10 -53 14 -45 23 -85 31 -96 19
-7 -8 -7 -9 2 -4 6 3 31 -6 55 -20 27 -16 34 -23 18 -19 -45 12 -99 38 -95 46
3 4 -4 5 -15 2 -12 -3 -22 1 -26 10 -3 9 -12 13 -21 10 -11 -4 -14 -2 -9 5 5
8 -2 11 -21 8 -15 -2 -19 -1 -8 2 l20 4 -20 9 c-17 8 -16 9 5 5 38 -8 204 -54
268 -75 70 -24 223 -43 277 -35 65 10 202 53 319 101 90 37 117 44 148 39 54
-9 99 5 193 60 69 40 162 81 188 83 4 1 2 -5 -5 -13z m2517 4 c-11 -5 -27 -9
-35 -9 -9 0 -8 4 5 9 11 5 27 9 35 9 9 0 8 -4 -5 -9z m-2175 -70 c0 -5 -2 -10
-4 -10 -3 0 -8 5 -11 10 -3 6 -1 10 4 10 6 0 11 -4 11 -10z m51 -8 c-7 -2 -18
1 -23 6 -8 8 -4 9 13 5 13 -4 18 -8 10 -11z m-441 -2 c0 -5 -5 -10 -11 -10 -5
0 -7 5 -4 10 3 6 8 10 11 10 2 0 4 -4 4 -10z m50 6 c0 -3 -4 -8 -10 -11 -5 -3
-10 -1 -10 4 0 6 5 11 10 11 6 0 10 -2 10 -4z m-147 -31 c-3 -9 -8 -14 -10
-11 -3 3 -2 9 2 15 9 16 15 13 8 -4z m462 -5 c3 -5 1 -10 -4 -10 -6 0 -11 5
-11 10 0 6 2 10 4 10 3 0 8 -4 11 -10z m35 0 c0 -5 -2 -10 -4 -10 -3 0 -8 5
-11 10 -3 6 -1 10 4 10 6 0 11 -4 11 -10z m176 -18 c-4 -3 -14 2 -24 12 -16
18 -16 18 6 6 13 -6 21 -14 18 -18z m-19 -28 c17 -8 38 -14 47 -14 9 0 16 -5
16 -11 0 -7 -8 -9 -22 -4 -80 25 -125 35 -140 31 -9 -2 -19 1 -21 8 -3 8 -8 8
-18 0 -17 -13 -59 -16 -59 -4 0 4 17 12 38 17 40 10 107 0 159 -23z m-2027 16
c0 -5 -5 -10 -11 -10 -5 0 -7 5 -4 10 3 6 8 10 11 10 2 0 4 -4 4 -10z m50 6
c0 -3 -4 -8 -10 -11 -5 -3 -10 -1 -10 4 0 6 5 11 10 11 6 0 10 -2 10 -4z
m1520 -6 c0 -5 -5 -10 -11 -10 -5 0 -7 5 -4 10 3 6 8 10 11 10 2 0 4 -4 4 -10z
m50 6 c0 -3 -4 -8 -10 -11 -5 -3 -10 -1 -10 4 0 6 5 11 10 11 6 0 10 -2 10 -4z
m542 -47 c10 -5 24 -9 32 -9 8 0 22 -7 30 -16 9 -8 16 -11 16 -6 0 15 53 -1
58 -18 3 -8 -1 -11 -10 -7 -9 3 -21 0 -27 -6 -9 -9 -11 -8 -5 6 5 13 2 16 -11
11 -10 -4 -20 -1 -25 6 -4 7 -21 14 -36 16 -16 1 -30 7 -32 13 -3 8 -10 8 -23
1 -18 -10 -23 -6 -20 13 1 5 -7 11 -18 14 -11 3 -22 12 -25 20 -4 10 5 9 37
-8 23 -12 50 -25 59 -30z m785 45 c-3 -3 -12 -4 -19 -1 -8 3 -5 6 6 6 11 1 17
-2 13 -5z m-3493 -27 c-3 -8 -12 -18 -19 -21 -16 -6 -8 24 9 36 14 9 18 4 10
-15z m56 19 c0 -2 -7 -6 -15 -10 -8 -3 -15 -1 -15 4 0 6 7 10 15 10 8 0 15 -2
15 -4z m450 -6 c0 -5 -5 -10 -11 -10 -5 0 -7 5 -4 10 3 6 8 10 11 10 2 0 4 -4
4 -10z m-689 -10 c11 0 19 -4 19 -8 0 -5 -24 -7 -53 -4 -30 2 -86 -3 -128 -12
-41 -9 -84 -18 -97 -21 -12 -2 -27 -7 -34 -11 -7 -4 -8 -3 -4 4 10 17 -9 15
-24 -3 -7 -8 -15 -13 -19 -11 -8 5 -171 -70 -171 -78 0 -8 32 -2 50 9 13 7 13
6 2 -7 -8 -11 -28 -15 -61 -15 l-48 1 120 59 c66 32 131 60 146 62 40 7 82 14
157 30 38 8 82 12 98 9 16 -2 37 -4 47 -4z m265 -5 c-8 -8 -20 -15 -27 -15 -9
0 -8 4 1 15 7 8 19 15 27 15 12 0 12 -2 -1 -15z m379 5 c-3 -5 -14 -10 -24
-10 -10 0 -24 -6 -30 -14 -6 -7 -29 -14 -51 -14 -21 0 -49 -7 -62 -15 -13 -8
-38 -18 -55 -22 -18 -4 -35 -11 -38 -16 -4 -5 2 -6 12 -2 10 3 15 3 11 -1 -6
-8 -35 -13 -108 -20 -19 -2 -38 -4 -42 -5 -5 -1 -8 -8 -8 -16 0 -13 -4 -14
-20 -5 -31 17 -146 25 -154 11 -4 -6 -15 -11 -24 -11 -15 1 -15 2 2 15 19 14
19 15 -8 15 -15 0 -25 4 -22 9 3 5 -9 11 -27 14 -17 3 -50 10 -72 16 l-40 9
46 -1 c25 0 52 3 60 8 11 7 12 6 2 -6 -11 -13 0 -17 74 -32 48 -9 89 -14 92
-12 2 3 -3 5 -12 5 -9 0 -17 4 -17 9 0 6 10 8 23 5 12 -3 56 -7 97 -9 77 -4
100 2 165 44 17 11 40 20 53 20 14 1 21 5 16 12 -4 7 0 9 12 6 11 -3 46 0 79
7 77 18 77 18 70 6z m1795 2 c0 -4 15 -6 34 -4 27 3 34 1 32 -12 -1 -8 -6 -19
-11 -23 -4 -4 -5 -3 -2 3 9 15 -15 24 -42 17 -12 -3 -21 -1 -21 6 0 9 -5 9
-20 1 -12 -6 -20 -7 -20 -1 0 8 16 16 43 20 4 0 7 -3 7 -7z m740 4 c0 -2 -7
-6 -15 -10 -8 -3 -15 -1 -15 4 0 6 7 10 15 10 8 0 15 -2 15 -4z m90 -6 c-19
-5 -38 -6 -42 -4 -4 3 -18 -1 -30 -7 -21 -11 -22 -11 -9 4 10 12 28 17 65 16
49 -1 49 -1 16 -9z m80 0 c0 -5 -2 -10 -4 -10 -3 0 -8 5 -11 10 -3 6 -1 10 4
10 6 0 11 -4 11 -10z m-3203 -6 c-3 -3 -12 -4 -19 -1 -8 3 -5 6 6 6 11 1 17
-2 13 -5z m198 -5 c63 -16 47 -28 -20 -16 -35 7 -51 13 -43 19 16 10 11 10 63
-3z m1852 -11 c-3 -8 -6 -5 -6 6 -1 11 2 17 5 13 3 -3 4 -12 1 -19z m158 12
c-3 -5 -11 -10 -16 -10 -6 0 -7 5 -4 10 3 6 11 10 16 10 6 0 7 -4 4 -10z m200
0 c3 -5 1 -10 -4 -10 -6 0 -11 5 -11 10 0 6 2 10 4 10 3 0 8 -4 11 -10z m569
-5 c-10 -8 -23 -15 -28 -15 -6 0 -1 7 10 15 10 8 23 15 28 15 6 0 1 -7 -10
-15z m379 -2 c42 -3 77 -9 77 -13 0 -5 -21 -6 -47 -4 -60 5 -39 -12 26 -22 24
-4 38 -10 31 -14 -6 -4 -28 -1 -48 6 -20 7 -45 13 -54 14 -9 0 -29 6 -45 14
-15 8 -39 19 -53 25 -24 11 -24 11 5 6 17 -3 65 -9 108 -12z m-2733 3 c0 -2
-7 -7 -16 -10 -8 -3 -12 -2 -9 4 6 10 25 14 25 6z m47 -2 c-3 -3 -12 -4 -19
-1 -8 3 -5 6 6 6 11 1 17 -2 13 -5z m1010 -35 c-6 -10 -13 -16 -16 -14 -2 3 2
11 9 20 9 11 9 15 1 15 -7 0 -9 5 -5 11 4 8 9 7 14 -2 5 -7 3 -20 -3 -30z
m327 26 c-4 -8 -8 -15 -10 -15 -2 0 -4 7 -4 15 0 8 4 15 10 15 5 0 7 -7 4 -15z
m-2029 -5 c-3 -5 -11 -10 -16 -10 -6 0 -7 5 -4 10 3 6 11 10 16 10 6 0 7 -4 4
-10z m1976 -21 c-5 -13 -10 -19 -10 -12 -1 15 10 45 15 40 3 -2 0 -15 -5 -28z
m-2021 6 c-7 -9 -15 -13 -19 -10 -3 3 1 10 9 15 21 14 24 12 10 -5z m347 9
c-3 -3 -12 -4 -19 -1 -8 3 -5 6 6 6 11 1 17 -2 13 -5z m1357 -9 c-4 -8 -8 -15
-10 -15 -2 0 -4 7 -4 15 0 8 4 15 10 15 5 0 7 -7 4 -15z m128 -7 c-7 -7 -12
-8 -12 -2 0 14 12 26 19 19 2 -3 -1 -11 -7 -17z m1196 2 c19 0 32 -3 29 -6
-10 -10 -77 -12 -71 -2 3 4 -3 8 -13 8 -15 0 -16 2 -3 10 10 6 16 6 18 0 2 -6
20 -10 40 -10z m532 10 c13 -9 13 -10 0 -9 -8 0 -24 4 -35 9 l-20 9 20 0 c11
0 27 -4 35 -9z m-1896 -15 c-4 -8 -10 -15 -15 -15 -4 0 -6 7 -3 15 4 8 10 15
15 15 4 0 6 -7 3 -15z m228 3 c-5 -7 -12 -22 -15 -33 -5 -20 -5 -20 -6 1 0 11
4 25 11 32 16 16 23 15 10 0z m282 -3 c-4 -8 -8 -15 -10 -15 -2 0 -4 7 -4 15
0 8 4 15 10 15 5 0 7 -7 4 -15z m206 5 c0 -5 -5 -10 -11 -10 -5 0 -7 5 -4 10
3 6 8 10 11 10 2 0 4 -4 4 -10z m260 0 c0 -5 -5 -10 -11 -10 -5 0 -7 5 -4 10
3 6 8 10 11 10 2 0 4 -4 4 -10z m-2930 -4 c0 -3 -4 -8 -10 -11 -5 -3 -10 -1
-10 4 0 6 5 11 10 11 6 0 10 -2 10 -4z m88 -10 c3 -3 -7 -6 -22 -6 -15 0 -39
-11 -53 -25 -15 -13 -30 -22 -33 -19 -3 4 5 13 18 21 12 9 22 21 22 29 0 9 10
12 31 9 17 -2 34 -6 37 -9z m167 4 c3 -5 -1 -10 -9 -10 -9 0 -16 5 -16 10 0 6
4 10 9 10 6 0 13 -4 16 -10z m145 6 c0 -2 -7 -7 -16 -10 -8 -3 -12 -2 -9 4 6
10 25 14 25 6z m330 0 c0 -3 -4 -8 -10 -11 -5 -3 -10 -1 -10 4 0 6 5 11 10 11
6 0 10 -2 10 -4z m1535 -36 c-4 -17 -9 -29 -12 -26 -3 2 -2 19 2 36 4 17 9 29
12 26 3 -2 2 -19 -2 -36z m615 30 c0 -5 -5 -10 -11 -10 -5 0 -7 5 -4 10 3 6 8
10 11 10 2 0 4 -4 4 -10z m1045 -12 c7 -7 2 -9 -15 -4 -14 3 -34 6 -45 6 -17
0 -17 2 -5 10 16 10 49 4 65 -12z m-3575 8 c0 -2 -7 -7 -16 -10 -8 -3 -12 -2
-9 4 6 10 25 14 25 6z m230 0 c0 -2 -7 -7 -16 -10 -8 -3 -12 -2 -9 4 6 10 25
14 25 6z m420 -6 c0 -5 -5 -10 -11 -10 -5 0 -7 5 -4 10 3 6 8 10 11 10 2 0 4
-4 4 -10z m910 -5 c-7 -9 -15 -13 -17 -11 -7 7 7 26 19 26 6 0 6 -6 -2 -15z
m88 -5 c-11 -18 -28 -27 -28 -16 0 6 30 36 36 36 2 0 -1 -9 -8 -20z m85 0 c-3
-11 -9 -17 -14 -15 -10 7 -1 35 11 35 5 0 6 -9 3 -20z m529 -2 c-7 -7 -12 -8
-12 -2 0 14 12 26 19 19 2 -3 -1 -11 -7 -17z m110 0 c-7 -7 -12 -8 -12 -2 0
14 12 26 19 19 2 -3 -1 -11 -7 -17z m108 18 c0 -3 -4 -8 -10 -11 -5 -3 -10 -1
-10 4 0 6 5 11 10 11 6 0 10 -2 10 -4z m1413 -5 c4 0 7 -5 7 -9 0 -4 -16 -6
-35 -4 -19 2 -33 8 -30 12 4 6 26 7 58 1z m-3378 -11 c-3 -5 -11 -10 -16 -10
-6 0 -7 5 -4 10 3 6 11 10 16 10 6 0 7 -4 4 -10z m1546 -17 c-8 -15 -10 -15
-11 -2 0 17 10 32 18 25 2 -3 -1 -13 -7 -23z m155 1 c-4 -9 -9 -15 -11 -12 -3
3 -3 13 1 22 4 9 9 15 11 12 3 -3 3 -13 -1 -22z m484 22 c0 -3 -4 -8 -10 -11
-5 -3 -10 -1 -10 4 0 6 5 11 10 11 6 0 10 -2 10 -4z m50 -6 c0 -5 -2 -10 -4
-10 -3 0 -8 5 -11 10 -3 6 -1 10 4 10 6 0 11 -4 11 -10z m961 -2 c24 -1 36 -3
27 -6 -10 -2 -18 -7 -18 -11 0 -8 -99 -5 -107 3 -3 3 -13 1 -23 -4 -24 -13
-34 0 -12 16 11 9 30 12 53 8 20 -3 56 -6 80 -6z m96 6 c-3 -3 -12 -4 -19 -1
-8 3 -5 6 6 6 11 1 17 -2 13 -5z m197 -5 c-2 -3 -17 -6 -34 -7 -17 0 -28 3
-25 8 3 5 19 8 34 7 16 -1 27 -5 25 -8z m-4454 -14 c-7 -8 -18 -15 -24 -15 -6
0 -2 7 8 15 25 19 32 19 16 0z m2780 11 c0 -3 -4 -8 -10 -11 -5 -3 -10 -1 -10
4 0 6 5 11 10 11 6 0 10 -2 10 -4z m320 0 c0 -3 -4 -8 -10 -11 -5 -3 -10 -1
-10 4 0 6 5 11 10 11 6 0 10 -2 10 -4z m177 -16 c3 -10 2 -11 -4 -4 -4 6 -18
10 -30 9 -12 -1 -20 2 -17 7 9 14 47 5 51 -12z m-2517 0 c0 -5 -8 -10 -17 -10
-15 0 -16 2 -3 10 19 12 20 12 20 0z m480 6 c0 -3 -4 -8 -10 -11 -5 -3 -10 -1
-10 4 0 6 5 11 10 11 6 0 10 -2 10 -4z m891 -23 c-12 -20 -14 -14 -5 12 4 9 9
14 11 11 3 -2 0 -13 -6 -23z m1229 17 c0 -5 -5 -10 -11 -10 -5 0 -7 5 -4 10 3
6 8 10 11 10 2 0 4 -4 4 -10z m865 0 c3 -5 1 -10 -4 -10 -6 0 -11 5 -11 10 0
6 2 10 4 10 3 0 8 -4 11 -10z m-2179 -26 c-4 -9 -9 -15 -11 -12 -3 3 -3 13 1
22 4 9 9 15 11 12 3 -3 3 -13 -1 -22z m175 -15 c-6 -24 -9 -28 -10 -12 -1 24
9 56 16 50 2 -3 0 -20 -6 -38z m244 11 c-4 -12 -9 -19 -12 -17 -3 3 -2 15 2
27 4 12 9 19 12 17 3 -3 2 -15 -2 -27z m147 8 c-7 -7 -12 -8 -12 -2 0 14 12
26 19 19 2 -3 -1 -11 -7 -17z m110 0 c-7 -7 -12 -8 -12 -2 0 14 12 26 19 19 2
-3 -1 -11 -7 -17z m315 0 c-3 -8 -6 -5 -6 6 -1 11 2 17 5 13 3 -3 4 -12 1 -19z
m-2991 -3 c-23 -17 -36 -19 -36 -6 0 5 10 12 23 14 12 2 24 5 27 5 3 1 -4 -5
-14 -13z m1284 5 c0 -5 -5 -10 -11 -10 -5 0 -7 5 -4 10 3 6 8 10 11 10 2 0 4
-4 4 -10z m992 -15 c-2 -14 -9 -25 -14 -25 -6 0 -7 7 -4 16 3 9 6 20 6 25 0 5
4 9 9 9 4 0 6 -11 3 -25z m838 15 c0 -5 -5 -10 -11 -10 -5 0 -7 5 -4 10 3 6 8
10 11 10 2 0 4 -4 4 -10z m-3215 -10 c-3 -5 -12 -10 -18 -10 -7 0 -6 4 3 10
19 12 23 12 15 0z m745 6 c0 -3 -4 -8 -10 -11 -5 -3 -10 -1 -10 4 0 6 5 11 10
11 6 0 10 -2 10 -4z m685 -6 c-3 -5 -11 -10 -16 -10 -6 0 -7 5 -4 10 3 6 11
10 16 10 6 0 7 -4 4 -10z m1191 -16 c-4 -9 -9 -15 -11 -12 -3 3 -3 13 1 22 4
9 9 15 11 12 3 -3 3 -13 -1 -22z m424 11 c0 -8 -4 -15 -10 -15 -5 0 -7 7 -4
15 4 8 8 15 10 15 2 0 4 -7 4 -15z m251 1 c5 3 9 1 9 -4 0 -6 -10 -10 -22 -10
-13 0 -34 -3 -48 -7 -17 -5 -13 -1 10 12 19 10 37 15 38 10 2 -4 8 -5 13 -1z
m-2814 -2 c-3 -3 -12 -4 -19 -1 -8 3 -5 6 6 6 11 1 17 -2 13 -5z m555 -16 c-7
-7 -12 -8 -12 -2 0 6 3 14 7 17 3 4 9 5 12 2 2 -3 -1 -11 -7 -17z m438 18 c0
-3 -4 -8 -10 -11 -5 -3 -10 -1 -10 4 0 6 5 11 10 11 6 0 10 -2 10 -4z m584
-11 c-4 -8 -10 -15 -15 -15 -4 0 -6 7 -3 15 4 8 10 15 15 15 4 0 6 -7 3 -15z
m82 -11 c-4 -9 -9 -15 -11 -12 -3 3 -3 13 1 22 4 9 9 15 11 12 3 -3 3 -13 -1
-22z m323 -18 c-9 -8 -10 -7 -5 7 3 10 7 24 7 30 1 7 3 4 6 -7 3 -10 -1 -23
-8 -30z m426 35 c3 -5 1 -12 -5 -16 -5 -3 -10 1 -10 9 0 18 6 21 15 7z m270
-1 c-3 -5 -11 -10 -16 -10 -6 0 -7 5 -4 10 3 6 11 10 16 10 6 0 7 -4 4 -10z
m-2625 -10 c0 -5 -5 -10 -11 -10 -5 0 -7 5 -4 10 3 6 8 10 11 10 2 0 4 -4 4
-10z m137 4 c-3 -3 -12 -4 -19 -1 -8 3 -5 6 6 6 11 1 17 -2 13 -5z m113 -4 c0
-5 -5 -10 -11 -10 -5 0 -7 5 -4 10 3 6 8 10 11 10 2 0 4 -4 4 -10z m735 0 c-3
-5 -11 -10 -16 -10 -6 0 -7 5 -4 10 3 6 11 10 16 10 6 0 7 -4 4 -10z m486 -13
c-10 -9 -11 -8 -5 6 3 10 9 15 12 12 3 -3 0 -11 -7 -18z m729 14 c0 -5 -7 -14
-15 -21 -16 -14 -18 -10 -9 14 6 17 24 22 24 7z m110 5 c0 -3 -4 -8 -10 -11
-5 -3 -10 -1 -10 4 0 6 5 11 10 11 6 0 10 -2 10 -4z m100 -6 c0 -5 -5 -10 -11
-10 -5 0 -7 5 -4 10 3 6 8 10 11 10 2 0 4 -4 4 -10z m50 0 c0 -5 -4 -10 -10
-10 -5 0 -10 5 -10 10 0 6 5 10 10 10 6 0 10 -4 10 -10z m-3001 -4 c-10 -9
-79 -14 -79 -5 0 5 19 9 42 9 23 0 39 -2 37 -4z m1133 -18 c-7 -7 -12 -8 -12
-2 0 6 3 14 7 17 3 4 9 5 12 2 2 -3 -1 -11 -7 -17z m753 12 c-3 -5 -11 -10
-16 -10 -6 0 -7 5 -4 10 3 6 11 10 16 10 6 0 7 -4 4 -10z m37 -12 c-7 -7 -12
-8 -12 -2 0 6 3 14 7 17 3 4 9 5 12 2 2 -3 -1 -11 -7 -17z m51 7 c-3 -9 -8
-14 -10 -11 -3 3 -2 9 2 15 9 16 15 13 8 -4z m128 -12 c-8 -15 -10 -15 -11 -2
0 17 10 32 18 25 2 -3 -1 -13 -7 -23z m139 7 c0 -11 -4 -20 -9 -20 -5 0 -7 9
-4 20 3 11 7 20 9 20 2 0 4 -9 4 -20z m336 -6 c-4 -9 -9 -15 -11 -12 -3 3 -3
13 1 22 4 9 9 15 11 12 3 -3 3 -13 -1 -22z m205 3 c-10 -9 -11 -8 -5 6 3 10 9
15 12 12 3 -3 0 -11 -7 -18z m339 18 c0 -2 -10 -10 -22 -16 -21 -11 -22 -11
-9 4 13 16 31 23 31 12z m460 -5 c0 -5 -2 -10 -4 -10 -3 0 -8 5 -11 10 -3 6
-1 10 4 10 6 0 11 -4 11 -10z m-3875 -25 c-54 -18 -93 -24 -169 -24 -119 -1
-123 8 -5 13 46 2 109 10 139 19 86 24 113 18 35 -8z m585 21 c0 -2 -7 -7 -16
-10 -8 -3 -12 -2 -9 4 6 10 25 14 25 6z m510 -13 c7 -6 -23 -23 -40 -22 -10 0
-8 3 5 9 16 7 14 9 -15 9 -19 1 -42 6 -50 12 -11 7 1 8 40 3 30 -3 57 -8 60
-11z m44 -15 c-6 -9 -34 1 -34 12 0 5 6 10 13 13 13 4 28 -13 21 -25z m338 10
c-7 -7 -12 -8 -12 -2 0 6 3 14 7 17 3 4 9 5 12 2 2 -3 -1 -11 -7 -17z m2015
16 c-3 -3 -12 -4 -19 -1 -8 3 -5 6 6 6 11 1 17 -2 13 -5z m133 -4 c0 -5 -4
-10 -10 -10 -5 0 -10 5 -10 10 0 6 5 10 10 10 6 0 10 -4 10 -10z m-2930 -4 c0
-2 -7 -7 -16 -10 -8 -3 -12 -2 -9 4 6 10 25 14 25 6z m962 -18 c-7 -7 -12 -8
-12 -2 0 6 3 14 7 17 3 4 9 5 12 2 2 -3 -1 -11 -7 -17z m972 0 c-4 -13 -7 -28
-7 -35 0 -7 -4 -10 -8 -7 -5 2 -6 11 -4 19 3 8 7 22 10 30 2 8 7 15 10 15 4 0
3 -10 -1 -22z m731 12 c-3 -5 -11 -10 -16 -10 -6 0 -7 5 -4 10 3 6 11 10 16
10 6 0 7 -4 4 -10z m205 0 c0 -5 -5 -10 -11 -10 -5 0 -7 5 -4 10 3 6 8 10 11
10 2 0 4 -4 4 -10z m-1996 -15 c-4 -8 -8 -15 -10 -15 -2 0 -4 7 -4 15 0 8 4
15 10 15 5 0 7 -7 4 -15z m56 11 c0 -3 -4 -8 -10 -11 -5 -3 -10 -1 -10 4 0 6
5 11 10 11 6 0 10 -2 10 -4z m90 0 c0 -3 -4 -8 -10 -11 -5 -3 -10 -1 -10 4 0
6 5 11 10 11 6 0 10 -2 10 -4z m270 -6 c0 -5 -5 -10 -11 -10 -5 0 -7 5 -4 10
3 6 8 10 11 10 2 0 4 -4 4 -10z m42 -12 c-7 -7 -12 -8 -12 -2 0 6 3 14 7 17 3
4 9 5 12 2 2 -3 -1 -11 -7 -17z m320 0 c-7 -7 -12 -8 -12 -2 0 14 12 26 19 19
2 -3 -1 -11 -7 -17z m367 -32 c-9 -8 -10 -7 -5 7 3 10 7 26 7 35 1 9 4 6 6 -7
3 -13 -1 -28 -8 -35z m111 34 c0 -11 -4 -20 -9 -20 -5 0 -7 9 -4 20 3 11 7 20
9 20 2 0 4 -9 4 -20z m154 5 c-4 -8 -10 -15 -15 -15 -4 0 -6 7 -3 15 4 8 10
15 15 15 4 0 6 -7 3 -15z m56 0 c-9 -11 -9 -15 -1 -15 7 0 9 -4 6 -10 -3 -5
-11 -10 -16 -10 -6 0 -7 5 -3 12 4 7 3 8 -5 4 -18 -12 -2 -28 21 -20 14 4 18
2 14 -5 -4 -6 0 -11 11 -11 15 0 16 -2 3 -10 -20 -13 -33 -13 -25 0 11 17 -11
11 -35 -10 -25 -22 -35 -26 -25 -10 7 11 -18 14 -29 3 -3 -4 -17 -8 -29 -10
-12 -2 -23 -8 -25 -13 -2 -6 -15 -10 -29 -10 -25 0 -26 1 -8 20 10 11 22 17
27 14 5 -3 18 2 29 12 21 19 50 37 87 53 12 6 22 15 22 21 0 5 5 10 11 10 8 0
8 -5 -1 -15z m104 -8 c-11 -6 -25 -17 -32 -24 -7 -7 -19 -13 -25 -13 -6 0 4
13 23 29 19 16 39 27 44 24 5 -3 0 -10 -10 -16z m376 19 c0 -3 -4 -8 -10 -11
-5 -3 -10 -1 -10 4 0 6 5 11 10 11 6 0 10 -2 10 -4z m470 0 c0 -3 -4 -8 -10
-11 -5 -3 -10 -1 -10 4 0 6 5 11 10 11 6 0 10 -2 10 -4z m-3180 -10 c0 -2 -7
-6 -15 -10 -8 -3 -15 -1 -15 4 0 6 7 10 15 10 8 0 15 -2 15 -4z m1140 0 c0 -3
-4 -8 -10 -11 -5 -3 -10 -1 -10 4 0 6 5 11 10 11 6 0 10 -2 10 -4z m134 -11
c-4 -8 -8 -15 -10 -15 -2 0 -4 7 -4 15 0 8 4 15 10 15 5 0 7 -7 4 -15z m229 0
c-3 -9 -8 -14 -10 -11 -3 3 -2 9 2 15 9 16 15 13 8 -4z m180 -5 c-3 -11 -7
-20 -9 -20 -2 0 -4 9 -4 20 0 11 4 20 9 20 5 0 7 -9 4 -20z m597 0 c-24 -15
-36 -11 -14 4 10 8 21 12 24 10 2 -3 -2 -9 -10 -14z m294 8 c-3 -4 -14 -8 -24
-8 -10 0 -22 -5 -25 -10 -5 -8 -11 -8 -19 -1 -8 7 -37 9 -70 6 -38 -4 -55 -2
-51 5 9 15 -4 12 -21 -5 -9 -8 -21 -15 -27 -15 -7 0 -2 8 11 18 18 14 43 17
126 18 58 0 103 -4 100 -8z m76 2 c0 -5 -5 -10 -11 -10 -5 0 -7 5 -4 10 3 6 8
10 11 10 2 0 4 -4 4 -10z m-1650 -4 c0 -3 -4 -8 -10 -11 -5 -3 -10 -1 -10 4 0
6 5 11 10 11 6 0 10 -2 10 -4z m50 0 c0 -3 -4 -8 -10 -11 -5 -3 -10 -1 -10 4
0 6 5 11 10 11 6 0 10 -2 10 -4z m40 -6 c0 -5 -5 -10 -11 -10 -5 0 -7 5 -4 10
3 6 8 10 11 10 2 0 4 -4 4 -10z m224 -5 c-4 -8 -8 -15 -10 -15 -2 0 -4 7 -4
15 0 8 4 15 10 15 5 0 7 -7 4 -15z m50 0 c-4 -8 -8 -15 -10 -15 -2 0 -4 7 -4
15 0 8 4 15 10 15 5 0 7 -7 4 -15z m37 -8 c-10 -9 -11 -8 -5 6 3 10 9 15 12
12 3 -3 0 -11 -7 -18z m59 13 c0 -5 -4 -10 -10 -10 -5 0 -10 5 -10 10 0 6 5
10 10 10 6 0 10 -4 10 -10z m171 -21 c-9 -22 -10 -22 -10 -3 -1 11 2 24 6 27
12 12 14 0 4 -24z m-1501 13 c-6 -2 -8 -7 -5 -11 2 -4 -15 -7 -39 -7 -24 1
-42 5 -39 10 5 7 -17 3 -54 -11 -7 -3 -13 0 -13 5 0 6 8 12 18 14 21 5 146 4
132 0z m1994 -7 c-4 -8 -10 -15 -15 -15 -4 0 -6 7 -3 15 4 8 10 15 15 15 4 0
6 -7 3 -15z m476 11 c0 -3 -4 -8 -10 -11 -5 -3 -10 -1 -10 4 0 6 5 11 10 11 6
0 10 -2 10 -4z m240 -6 c0 -5 -4 -10 -10 -10 -5 0 -10 5 -10 10 0 6 5 10 10
10 6 0 10 -4 10 -10z m-3165 -10 c-3 -5 -12 -10 -18 -10 -7 0 -6 4 3 10 19 12
23 12 15 0z m115 6 c0 -3 -4 -8 -10 -11 -5 -3 -10 -1 -10 4 0 6 5 11 10 11 6
0 10 -2 10 -4z m55 -6 c-3 -5 -12 -10 -18 -10 -7 0 -6 4 3 10 19 12 23 12 15
0z m120 0 c-3 -5 -14 -10 -23 -10 -15 0 -15 2 -2 10 20 13 33 13 25 0z m1629
-5 c-6 -16 -24 -21 -24 -7 0 11 11 22 21 22 5 0 6 -7 3 -15z m181 -25 c-4 -17
-9 -29 -12 -26 -3 2 -2 19 2 36 4 17 9 29 12 26 3 -2 2 -19 -2 -36z m193 15
c-3 -13 -1 -26 4 -27 5 -2 2 -12 -6 -23 -15 -19 -15 -19 -9 4 5 18 3 22 -7 16
-9 -5 -11 -3 -6 6 3 8 9 22 12 32 9 25 17 21 12 -8z m514 9 c-12 -8 -28 -13
-35 -11 -7 3 -1 9 13 15 37 16 47 14 22 -4z m298 6 c0 -5 -5 -10 -11 -10 -5 0
-7 5 -4 10 3 6 8 10 11 10 2 0 4 -4 4 -10z m225 0 c3 -5 1 -10 -4 -10 -6 0
-11 5 -11 10 0 6 2 10 4 10 3 0 8 -4 11 -10z m255 6 c0 -3 -4 -8 -10 -11 -5
-3 -10 -1 -10 4 0 6 5 11 10 11 6 0 10 -2 10 -4z m-3353 -12 c-3 -3 -12 -4
-19 -1 -8 3 -5 6 6 6 11 1 17 -2 13 -5z m268 -12 c-3 -3 -11 0 -18 7 -9 10 -8
11 6 5 10 -3 15 -9 12 -12z m202 12 c-3 -3 -12 -4 -19 -1 -8 3 -5 6 6 6 11 1
17 -2 13 -5z m483 -3 c15 -4 -29 -21 -54 -21 -17 0 -36 -9 -47 -22 -17 -18
-19 -19 -19 -3 0 12 -5 15 -17 10 -28 -10 -83 -14 -88 -5 -4 7 19 15 75 26 8
2 31 7 50 12 29 7 77 9 100 3z m30 -1 c0 -5 -5 -10 -11 -10 -5 0 -7 5 -4 10 3
6 8 10 11 10 2 0 4 -4 4 -10z m651 -17 c-8 -15 -10 -15 -11 -2 0 17 10 32 18
25 2 -3 -1 -13 -7 -23z m332 -14 c-3 -11 -10 -22 -16 -26 -7 -4 -8 0 -4 11 4
10 7 27 7 39 0 16 3 18 9 8 5 -7 6 -22 4 -32z m201 26 c-4 -8 -10 -15 -15 -15
-4 0 -6 7 -3 15 4 8 10 15 15 15 4 0 6 -7 3 -15z m656 11 c0 -3 -4 -8 -10 -11
-5 -3 -10 -1 -10 4 0 6 5 11 10 11 6 0 10 -2 10 -4z m403 -8 c9 0 17 -4 17 -9
0 -6 4 -8 9 -4 5 3 13 0 17 -6 5 -8 0 -10 -17 -6 -13 3 -43 9 -67 13 -29 5
-39 10 -30 15 7 5 22 6 33 2 11 -4 28 -6 38 -5z m-2473 -8 c0 -5 -5 -10 -11
-10 -5 0 -7 5 -4 10 3 6 8 10 11 10 2 0 4 -4 4 -10z m280 0 c0 -5 -8 -10 -17
-10 -15 0 -16 2 -3 10 19 12 20 12 20 0z m1085 -11 c-10 -15 -25 -10 -19 6 4
8 10 12 15 9 5 -3 7 -10 4 -15z m345 8 c0 -5 -13 -7 -30 -5 -16 3 -30 1 -30
-4 0 -5 -5 -6 -10 -3 -6 4 -8 10 -6 14 7 10 76 9 76 -2z m50 3 c0 -5 -7 -10
-16 -10 -8 0 -12 5 -9 10 3 6 10 10 16 10 5 0 9 -4 9 -10z m245 0 c-3 -5 -11
-10 -16 -10 -6 0 -7 5 -4 10 3 6 11 10 16 10 6 0 7 -4 4 -10z m-3220 -10 c-3
-5 -12 -10 -18 -10 -7 0 -6 4 3 10 19 12 23 12 15 0z m1545 2 c0 -13 -12 -22
-22 -16 -10 6 -1 24 13 24 5 0 9 -4 9 -8z m502 -14 c-7 -7 -12 -8 -12 -2 0 14
12 26 19 19 2 -3 -1 -11 -7 -17z m1118 18 c0 -2 -7 -7 -16 -10 -8 -3 -12 -2
-9 4 6 10 25 14 25 6z m-2625 -16 c-3 -5 -16 -10 -28 -9 -21 0 -21 1 -2 9 28
12 37 12 30 0z m50 0 c-3 -5 -14 -10 -23 -10 -15 0 -15 2 -2 10 20 13 33 13
25 0z m65 0 c0 -5 -10 -10 -22 -9 -22 0 -22 1 -3 9 11 5 21 9 23 9 1 1 2 -3 2
-9z m790 6 c0 -9 -40 -13 -46 -5 -3 5 6 9 20 9 14 0 26 -2 26 -4z m145 -6 c-3
-5 -11 -10 -16 -10 -6 0 -7 5 -4 10 3 6 11 10 16 10 6 0 7 -4 4 -10z m37 -12
c-7 -7 -12 -8 -12 -2 0 6 3 14 7 17 3 4 9 5 12 2 2 -3 -1 -11 -7 -17z m49 -5
c-8 -15 -10 -15 -11 -2 0 17 10 32 18 25 2 -3 -1 -13 -7 -23z m280 0 c-8 -15
-10 -15 -11 -2 0 17 10 32 18 25 2 -3 -1 -13 -7 -23z m41 5 c-7 -7 -12 -8 -12
-2 0 6 3 14 7 17 3 4 9 5 12 2 2 -3 -1 -11 -7 -17z m1358 12 c0 -5 -4 -10 -10
-10 -5 0 -10 5 -10 10 0 6 5 10 10 10 6 0 10 -4 10 -10z m60 0 c0 -5 -7 -10
-16 -10 -8 0 -12 5 -9 10 3 6 10 10 16 10 5 0 9 -4 9 -10z m425 0 c3 -5 1 -10
-4 -10 -6 0 -11 5 -11 10 0 6 2 10 4 10 3 0 8 -4 11 -10z m-3540 -10 c-3 -5
-14 -10 -23 -9 -14 0 -13 2 3 9 27 11 27 11 20 0z m115 0 c-8 -5 -19 -10 -25
-10 -5 0 -3 5 5 10 8 5 20 10 25 10 6 0 3 -5 -5 -10z m57 4 c-3 -3 -12 -4 -19
-1 -8 3 -5 6 6 6 11 1 17 -2 13 -5z m908 -4 c3 -5 -3 -10 -15 -10 -12 0 -18 5
-15 10 3 6 10 10 15 10 5 0 12 -4 15 -10z m345 -6 c0 -8 -5 -12 -10 -9 -6 4
-8 11 -5 16 9 14 15 11 15 -7z m46 -10 c-4 -9 -9 -15 -11 -12 -3 3 -3 13 1 22
4 9 9 15 11 12 3 -3 3 -13 -1 -22z m135 3 c-10 -9 -11 -8 -5 6 3 10 9 15 12
12 3 -3 0 -11 -7 -18z m1279 13 c0 -5 -7 -10 -16 -10 -8 0 -12 5 -9 10 3 6 10
10 16 10 5 0 9 -4 9 -10z m115 0 c-3 -5 -10 -10 -16 -10 -5 0 -9 5 -9 10 0 6
7 10 16 10 8 0 12 -4 9 -10z m355 -6 c0 -2 -7 -4 -15 -4 -8 0 -15 4 -15 10 0
5 7 7 15 4 8 -4 15 -8 15 -10z m-3700 -4 c-8 -5 -28 -9 -45 -9 -30 2 -30 2 5
9 51 11 57 11 40 0z m57 4 c-3 -3 -12 -4 -19 -1 -8 3 -5 6 6 6 11 1 17 -2 13
-5z m230 0 c-3 -3 -12 -4 -19 -1 -8 3 -5 6 6 6 11 1 17 -2 13 -5z m1623 -9 c0
-8 -4 -15 -10 -15 -5 0 -7 7 -4 15 4 8 8 15 10 15 2 0 4 -7 4 -15z m1266 8
c-10 -11 -36 -12 -36 -2 0 5 10 9 22 9 12 0 18 -3 14 -7z m569 -3 c3 -5 1 -10
-4 -10 -6 0 -11 5 -11 10 0 6 2 10 4 10 3 0 8 -4 11 -10z m285 0 c0 -5 -5 -10
-11 -10 -5 0 -7 5 -4 10 3 6 8 10 11 10 2 0 4 -4 4 -10z m-2550 -4 c0 -2 -9
-6 -20 -9 -11 -3 -20 -1 -20 4 0 5 9 9 20 9 11 0 20 -2 20 -4z m2325 -6 c3 -5
2 -10 -4 -10 -5 0 -13 5 -16 10 -3 6 -2 10 4 10 5 0 13 -4 16 -10z m170 0 c3
-5 1 -10 -4 -10 -6 0 -11 5 -11 10 0 6 2 10 4 10 3 0 8 -4 11 -10z m-502 -7
c-7 -2 -19 -2 -25 0 -7 3 -2 5 12 5 14 0 19 -2 13 -5z"/>
<path d="M2547 1903 c-27 -14 -46 -28 -43 -31 7 -6 50 14 85 40 32 25 16 21
-42 -9z"/>
<path d="M2157 1870 c13 -12 73 -20 73 -10 0 6 -3 10 -7 11 -5 0 -23 2 -41 4
-19 1 -30 -1 -25 -5z"/>
<path d="M2240 1859 c0 -5 11 -9 25 -9 14 0 25 2 25 4 0 2 -11 6 -25 8 -14 3
-25 1 -25 -3z"/>
<path d="M2468 1863 c7 -3 16 -2 19 1 4 3 -2 6 -13 5 -11 0 -14 -3 -6 -6z"/>
<path d="M1578 1763 c7 -3 16 -2 19 1 4 3 -2 6 -13 5 -11 0 -14 -3 -6 -6z"/>
<path d="M1275 1680 c-3 -5 -1 -10 4 -10 6 0 11 5 11 10 0 6 -2 10 -4 10 -3 0
-8 -4 -11 -10z"/>
<path d="M1385 1680 c-8 -13 5 -13 25 0 13 8 13 10 -2 10 -9 0 -20 -4 -23 -10z"/>
<path d="M1448 1683 c6 -2 18 -2 25 0 6 3 1 5 -13 5 -14 0 -19 -2 -12 -5z"/>
<path d="M3448 1683 c7 -3 16 -2 19 1 4 3 -2 6 -13 5 -11 0 -14 -3 -6 -6z"/>
<path d="M918 1673 c6 -2 18 -2 25 0 6 3 1 5 -13 5 -14 0 -19 -2 -12 -5z"/>
<path d="M1088 1673 c6 -2 18 -2 25 0 6 3 1 5 -13 5 -14 0 -19 -2 -12 -5z"/>
<path d="M1158 1673 c7 -3 16 -2 19 1 4 3 -2 6 -13 5 -11 0 -14 -3 -6 -6z"/>
<path d="M5771 1611 c-8 -5 -64 -9 -125 -10 -482 -3 -630 -7 -634 -19 -4 -14
-32 -16 -32 -2 0 14 -27 12 -34 -2 -3 -9 -10 -7 -22 7 -9 11 -18 15 -20 9 -3
-6 -60 -9 -164 -8 -135 2 -161 0 -169 -13 -4 -9 -14 -13 -20 -9 -6 4 -9 12 -6
17 4 5 0 9 -8 9 -8 0 -18 -7 -21 -16 -3 -8 -11 -12 -17 -8 -6 4 -31 8 -55 10
-32 2 -42 -1 -37 -9 5 -9 3 -9 -8 -1 -8 5 -30 11 -49 12 -29 1 -31 0 -11 -6
25 -8 42 -32 22 -32 -6 0 -11 5 -11 11 0 7 -11 9 -30 6 -17 -4 -30 -2 -30 3 0
6 -7 10 -16 10 -9 0 -12 -5 -8 -12 5 -8 -2 -9 -23 -5 -18 3 -35 1 -43 -6 -10
-9 -14 -9 -17 1 -3 6 -11 12 -19 12 -9 0 -12 -4 -9 -10 3 -5 1 -10 -5 -10 -6
0 -8 -4 -5 -10 3 -5 1 -10 -4 -10 -6 0 -11 7 -11 15 0 9 -10 15 -26 15 -14 0
-23 4 -19 9 3 5 1 12 -4 15 -5 3 -11 -3 -14 -14 -5 -21 -39 -29 -35 -9 2 6 -8
13 -21 14 -21 2 -22 0 -7 -10 14 -11 15 -13 1 -18 -9 -4 -19 2 -25 13 -6 11
-18 20 -28 19 -9 0 -12 -3 -6 -5 7 -3 10 -13 7 -24 -5 -17 -6 -17 -22 -2 -11
11 -14 20 -7 25 7 5 3 7 -9 5 -12 -2 -19 -10 -17 -21 4 -21 -16 -23 -24 -2 -4
8 -13 15 -21 15 -8 0 -11 -5 -7 -11 5 -9 -2 -10 -22 -6 -16 4 -51 9 -79 12
-48 5 -49 5 -18 -7 40 -16 57 -33 23 -24 -72 20 -74 20 -103 18 -10 -1 -15 -7
-11 -13 3 -6 15 -9 25 -6 10 3 17 0 16 -6 -1 -6 8 -13 21 -15 12 -2 22 -7 22
-12 0 -4 -21 -2 -47 6 -66 20 -162 33 -165 22 -2 -5 -17 -2 -33 6 -17 9 -39
15 -50 15 -19 -1 -19 -2 -1 -6 10 -3 33 -14 50 -25 17 -11 22 -17 11 -13 -88
29 -137 38 -144 26 -6 -9 -10 -6 -15 11 -4 13 -9 18 -12 11 -4 -9 -15 -8 -43
7 l-38 19 2 -22 c1 -16 28 -40 97 -87 89 -60 146 -105 87 -68 -147 92 -195
128 -206 157 -8 22 -8 31 0 31 5 0 8 2 5 5 -3 3 -13 3 -22 -1 -16 -6 -16 -8 0
-25 24 -27 12 -33 -19 -9 -14 11 -32 18 -40 14 -8 -3 -17 2 -21 12 -10 25 -38
-2 -30 -30 3 -12 -3 -7 -16 13 -16 25 -24 31 -33 22 -9 -9 27 -88 145 -324
246 -492 320 -644 302 -622 -9 11 -113 215 -231 452 -118 238 -218 433 -222
433 -4 0 -13 16 -20 36 -10 27 -16 33 -22 23 -8 -11 -11 -11 -20 4 -10 18 -12
18 -30 1 -11 -10 -19 -12 -19 -6 0 45 -53 -50 -260 -466 -130 -259 -242 -478
-249 -485 -14 -13 -7 2 268 551 105 210 191 391 191 402 0 23 -10 26 -28 8 -9
-9 -12 -8 -12 4 0 15 -3 15 -30 1 -19 -9 -35 -11 -43 -6 -7 5 -23 8 -37 8 -14
-1 -35 -3 -47 -3 -13 -1 -23 -8 -23 -14 0 -8 -13 -13 -30 -13 -16 0 -30 5 -30
12 0 8 -15 10 -45 8 -26 -3 -45 0 -45 5 0 6 -5 10 -11 10 -5 0 -8 -4 -5 -9 3
-4 -12 -8 -34 -8 -22 0 -40 4 -40 8 0 5 -8 9 -17 9 -16 0 -16 -2 -3 -10 11 -7
3 -9 -25 -5 -22 3 -61 2 -88 -3 -27 -5 -50 -6 -53 -1 -8 14 -24 10 -24 -6 0
-20 -10 -19 -27 3 -14 16 -14 16 -9 0 6 -19 -2 -22 -22 -9 -7 4 -36 4 -65 -1
-29 -5 -74 -11 -101 -14 -27 -2 -53 -7 -59 -11 -5 -3 -12 -1 -16 4 -10 16 -81
26 -81 12 0 -9 -3 -9 -14 0 -15 13 -67 5 -78 -12 -4 -7 -11 -7 -21 2 -10 8
-17 9 -22 1 -8 -13 -35 -13 -35 1 0 6 7 9 15 5 9 -3 15 0 15 8 0 11 -7 12 -28
7 -15 -5 -26 -14 -24 -20 1 -7 -6 -11 -15 -10 -10 1 -26 -1 -36 -6 -10 -4 -21
-5 -24 -1 -3 3 -12 1 -19 -5 -9 -7 -18 -7 -31 0 -16 9 -16 10 -2 11 20 0 35
30 16 30 -7 0 -18 -5 -24 -11 -9 -9 -19 -9 -42 1 -29 12 -50 11 -111 -4 -22
-6 -23 -5 -5 4 16 8 10 9 -27 6 -26 -2 -48 0 -50 4 -7 20 -692 38 -714 19 -8
-6 -14 -6 -18 -1 -3 6 -29 8 -58 6 -31 -2 -57 1 -67 9 -10 8 -13 8 -8 0 5 -8
-10 -10 -55 -7 -35 3 -85 4 -113 3 -27 -1 -88 -2 -135 -3 l-85 -1 -3 -797 -2
-798 2950 0 2950 0 0 804 0 803 -50 -2 c-27 -1 -50 2 -50 6 0 11 -11 11 -29 0z
m-3421 -35 c0 -2 -7 -6 -15 -10 -8 -3 -15 -1 -15 4 0 6 7 10 15 10 8 0 15 -2
15 -4z m394 -11 c-4 -8 -8 -15 -10 -15 -2 0 -4 7 -4 15 0 8 4 15 10 15 5 0 7
-7 4 -15z m-1529 -16 c-16 -5 -35 -4 -44 2 -13 8 -13 9 4 5 11 -3 27 -1 35 4
8 5 19 6 24 2 6 -3 -3 -9 -19 -13z m1252 15 c-3 -3 -12 -4 -19 -1 -8 3 -5 6 6
6 11 1 17 -2 13 -5z m-232 -14 c-3 -5 -12 -10 -18 -10 -7 0 -6 4 3 10 19 12
23 12 15 0z m345 6 c0 -2 -7 -6 -15 -10 -8 -3 -15 -1 -15 4 0 6 7 10 15 10 8
0 15 -2 15 -4z m140 -1 c0 -2 -7 -8 -15 -15 -12 -10 -15 -10 -15 2 0 8 7 15
15 15 8 0 15 -1 15 -2z m-530 -15 c0 -5 -15 -9 -32 -9 l-33 1 30 8 c17 4 31 8
33 9 1 0 2 -3 2 -9z m737 -12 c-3 -8 -6 -5 -6 6 -1 11 2 17 5 13 3 -3 4 -12 1
-19z m348 1 c11 -16 1 -19 -13 -3 -7 8 -8 14 -3 14 5 0 13 -5 16 -11z m835 1
c0 -5 -4 -10 -10 -10 -5 0 -10 5 -10 10 0 6 5 10 10 10 6 0 10 -4 10 -10z
m-1993 -6 c-3 -3 -12 -4 -19 -1 -8 3 -5 6 6 6 11 1 17 -2 13 -5z m173 -4 c0
-5 -5 -10 -11 -10 -5 0 -7 5 -4 10 3 6 8 10 11 10 2 0 4 -4 4 -10z m390 6 c0
-2 -12 -11 -27 -20 l-28 -17 24 20 c23 21 31 25 31 17z m1135 -6 c3 -5 -1 -10
-9 -10 -9 0 -16 5 -16 10 0 6 4 10 9 10 6 0 13 -4 16 -10z m62 -16 c-3 -3 -12
-4 -19 -1 -8 3 -5 6 6 6 11 1 17 -2 13 -5z m-1276 -33 c-31 -23 -90 -57 -76
-44 13 14 88 63 95 63 3 0 -6 -9 -19 -19z m-464 3 c-3 -3 -12 -4 -19 -1 -8 3
-5 6 6 6 11 1 17 -2 13 -5z m1410 0 c-3 -3 -12 -4 -19 -1 -8 3 -5 6 6 6 11 1
17 -2 13 -5z m240 0 c-3 -3 -12 -4 -19 -1 -8 3 -5 6 6 6 11 1 17 -2 13 -5z
m-1442 -14 c-3 -5 -16 -10 -28 -9 -21 0 -21 1 -2 9 28 12 37 12 30 0z m1385
-60 c8 -5 11 -10 5 -10 -5 0 -17 5 -25 10 -8 5 -10 10 -5 10 6 0 17 -5 25 -10z
m-1280 -24 c0 -3 -15 -14 -32 -26 l-33 -22 30 26 c31 27 35 29 35 22z m1480
-315 c201 -134 370 -248 375 -254 16 -16 -10 0 -167 105 -81 54 -152 98 -157
98 -5 0 -11 4 -13 8 -1 5 -113 82 -248 172 -135 89 -252 169 -260 177 -20 20
46 -23 470 -306z m-95 299 c13 -6 15 -9 5 -9 -8 0 -22 4 -30 9 -18 12 -2 12
25 0z m-1469 -43 c-10 -7 -37 -26 -60 -42 -63 -47 -163 -109 -146 -92 19 19
210 147 219 146 3 0 -2 -6 -13 -12z m-231 -156 c-19 -17 -470 -313 -455 -298
17 16 451 307 459 307 3 0 1 -4 -4 -9z m2552 -147 c-3 -3 -12 -4 -19 -1 -8 3
-5 6 6 6 11 1 17 -2 13 -5z m-3027 -169 c0 -2 -10 -9 -22 -15 -22 -11 -22 -10
-4 4 21 17 26 19 26 11z m-81 -58 c-32 -23 -89 -56 -89 -53 0 8 85 64 89 60 2
-2 2 -5 0 -7z m2756 3 c3 -5 1 -10 -4 -10 -6 0 -11 5 -11 10 0 6 2 10 4 10 3
0 8 -4 11 -10z m932 -6 c-3 -3 -12 -4 -19 -1 -8 3 -5 6 6 6 11 1 17 -2 13 -5z
m-3847 -99 c0 -2 -10 -9 -22 -15 -22 -11 -22 -10 -4 4 21 17 26 19 26 11z"/>
<path d="M2610 1590 c0 -5 5 -10 10 -10 6 0 10 5 10 10 0 6 -4 10 -10 10 -5 0
-10 -4 -10 -10z"/>
<path d="M3668 1563 c7 -3 16 -2 19 1 4 3 -2 6 -13 5 -11 0 -14 -3 -6 -6z"/>
<path d="M3470 1540 c20 -13 33 -13 25 0 -3 6 -14 10 -23 10 -15 0 -15 -2 -2
-10z"/>
<path d="M3588 1543 c7 -3 16 -2 19 1 4 3 -2 6 -13 5 -11 0 -14 -3 -6 -6z"/>
</g>
</svg>
